<svg width="24" height="24" viewBox="0 0 24 24" fill="none" xmlns="http://www.w3.org/2000/svg">
<path d="M3 16.9997L8.22999 10.898C8.63274 10.4282 9.36128 10.4332 9.75746 10.9086L13.299 15.1585C13.6754 15.6102 14.3585 15.6412 14.7743 15.2254L16.21 13.7897C16.6314 13.3683 17.3256 13.4067 17.698 13.8721L21 17.9997" stroke="white" stroke-linecap="round" stroke-linejoin="round"/>
<path d="M14 9C14 8.44772 14.4477 8 15 8C15.5523 8 16 8.44772 16 9C16 9.55228 15.5523 10 15 10C14.4477 10 14 9.55228 14 9Z" stroke="white" stroke-linecap="round" stroke-linejoin="round"/>
<path d="M3 6C3 4.89543 3.89543 4 5 4H19C20.1046 4 21 4.89543 21 6V18C21 19.1046 20.1046 20 19 20H5C3.89543 20 3 19.1046 3 18V6Z" stroke="white" stroke-linecap="round" stroke-linejoin="round"/>
</svg>
